<?xml version="1.0" encoding="utf-8"?>
<!-- Generator: Adobe Illustrator 24.1.1, SVG Export Plug-In . SVG Version: 6.00 Build 0)  -->
<svg version="1.1" id="Ebene_1" xmlns="http://www.w3.org/2000/svg" xmlns:xlink="http://www.w3.org/1999/xlink" x="0px" y="0px"
	 viewBox="0 0 500 500" style="enable-background:new 0 0 500 500;" xml:space="preserve">
<g>
	<g>
		<path d="M399.5,163.6c14.7,32.2,22.6,47.3,22.6,85.7c0,95.2-77.2,172.3-172.3,172.3S77.4,344.5,77.4,249.3S154.6,77,249.8,77
			c21.6,0,51.1,2.9,89.4,25.4l62.5-46.1C359.8,23.5,307.2,4,250,4C114.1,4,4,114.1,4,250s110.1,246,246,246s246-110.1,246-246
			c0-54.8-17.9-105.5-48.3-146.4"/>
	</g>
	<g>
		<polygon points="295.4,257.7 436.1,4 205.2,235.3 217.1,278.9 		"/>
	</g>
</g>
</svg>
