<svg xmlns="http://www.w3.org/2000/svg" viewBox="0 0 128 89.6"><title>tableCellBackground</title><g id="Ebene_2" data-name="Ebene 2"><g id="Ebene_1-2" data-name="Ebene 1"><path d="M115.2,0H12.8A12.8,12.8,0,0,0,0,12.8v64A12.8,12.8,0,0,0,12.8,89.6H115.2A12.8,12.8,0,0,0,128,76.8v-64A12.8,12.8,0,0,0,115.2,0Zm0,76.8H12.8V64H115.2Zm0-25.6H12.8V12.8H115.2Z"/><polygon points="115.2 25.6 50.4 25.6 50.4 12.8 37.6 12.8 37.6 25.6 12.8 25.6 12.8 38.4 37.6 38.4 37.6 76.8 50.4 76.8 50.4 38.4 115.2 38.4 115.2 25.6"/><rect x="77.6" y="12.8" width="12.8" height="64"/><rect x="50.4" y="38.4" width="27.2" height="12.8"/></g></g></svg>