<svg xmlns="http://www.w3.org/2000/svg" viewBox="0 0 129 129"><defs><style>.cls-1{fill:#ccc;}</style></defs><title>Element 2</title><g id="Ebene_2" data-name="Ebene 2"><g id="Ebene_1-2" data-name="Ebene 1"><path class="cls-1" d="M128.5,0H128V.5h.5V0ZM126,0h-.5V.5h.5V0Zm-2.5,0H123V.5h.5V0ZM121,0h-.5V.5h.5V0Zm-2.5,0H118V.5h.5V0ZM116,0h-.5V.5h.5V0Zm-2.5,0H113V.5h.5V0ZM111,0h-.5V.5h.5V0Zm-2.5,0H108V.5h.5V0ZM106,0h-.5V.5h.5V0Zm-2.5,0H103V.5h.5V0ZM101,0h-.5V.5h.5V0ZM98.5,0H98V.5h.5V0ZM96,0h-.5V.5H96V0ZM93.5,0H93V.5h.5V0ZM91,0h-.5V.5H91V0ZM88.5,0H88V.5h.5V0ZM86,0h-.5V.5H86V0ZM83.5,0H83V.5h.5V0ZM81,0h-.5V.5H81V0ZM78.5,0H78V.5h.5V0ZM76,0h-.5V.5H76V0ZM73.5,0H73V.5h.5V0ZM71,0h-.5V.5H71V0ZM68.5,0H68V.5h.5V0ZM66,0h-.5V.5H66V0ZM63.5,0H63V.5h.5V0ZM61,0h-.5V.5H61V0ZM58.5,0H58V.5h.5V0ZM56,0h-.5V.5H56V0ZM53.5,0H53V.5h.5V0ZM51,0h-.5V.5H51V0ZM48.5,0H48V.5h.5V0ZM46,0h-.5V.5H46V0ZM43.5,0H43V.5h.5V0ZM41,0h-.5V.5H41V0ZM38.5,0H38V.5h.5V0ZM36,0h-.5V.5H36V0ZM33.5,0H33V.5h.5V0ZM31,0h-.5V.5H31V0ZM28.5,0H28V.5h.5V0ZM26,0h-.5V.5H26V0ZM23.5,0H23V.5h.5V0ZM21,0h-.5V.5H21V0ZM18.5,0H18V.5h.5V0ZM16,0h-.5V.5H16V0ZM13.5,0H13V.5h.5V0ZM11,0h-.5V.5H11V0ZM8.5,0H8V.5h.5V0ZM6,0H5.5V.5H6V0ZM3.5,0H3V.5h.5V0ZM1,0H.5V.5H1V0ZM.5,2.5H0V3H.5V2.5ZM.5,5H0v.5H.5V5Zm0,2.5H0V8H.5V7.5ZM.5,10H0v.5H.5V10Zm0,2.5H0V13H.5v-.5ZM.5,15H0v.5H.5V15Zm0,2.5H0V18H.5v-.5ZM.5,20H0v.5H.5V20Zm0,2.5H0V23H.5v-.5ZM.5,25H0v.5H.5V25Zm0,2.5H0V28H.5v-.5ZM.5,30H0v.5H.5V30Zm0,2.5H0V33H.5v-.5ZM.5,35H0v.5H.5V35Zm0,2.5H0V38H.5v-.5ZM.5,40H0v.5H.5V40Zm0,2.5H0V43H.5v-.5ZM.5,45H0v.5H.5V45Zm0,2.5H0V48H.5v-.5ZM.5,50H0v.5H.5V50Zm0,2.5H0V53H.5v-.5ZM.5,55H0v.5H.5V55Zm0,2.5H0V58H.5v-.5ZM.5,60H0v.5H.5V60Zm0,2.5H0V63H.5v-.5ZM.5,65H0v.5H.5V65Zm0,2.5H0V68H.5v-.5ZM.5,70H0v.5H.5V70Zm0,2.5H0V73H.5v-.5ZM.5,75H0v.5H.5V75Zm0,2.5H0V78H.5v-.5ZM.5,80H0v.5H.5V80Zm0,2.5H0V83H.5v-.5ZM.5,85H0v.5H.5V85Zm0,2.5H0V88H.5v-.5ZM.5,90H0v.5H.5V90Zm0,2.5H0V93H.5v-.5ZM.5,95H0v.5H.5V95Zm0,2.5H0V98H.5v-.5Zm0,2.5H0v.5H.5V100Zm0,2.5H0v.5H.5v-.5Zm0,2.5H0v.5H.5V105Zm0,2.5H0v.5H.5v-.5Zm0,2.5H0v.5H.5V110Zm0,2.5H0v.5H.5v-.5Zm0,2.5H0v.5H.5V115Zm0,2.5H0v.5H.5v-.5Zm0,2.5H0v.5H.5V120Zm0,2.5H0v.5H.5v-.5Zm0,2.5H0v.5H.5V125Zm0,2.5H0v.5H.5v-.5Zm2,1H2v.5h.5v-.5Zm2.5,0H4.5v.5H5v-.5Zm2.5,0H7v.5h.5v-.5Zm2.5,0H9.5v.5H10v-.5Zm2.5,0H12v.5h.5v-.5Zm2.5,0h-.5v.5H15v-.5Zm2.5,0H17v.5h.5v-.5Zm2.5,0h-.5v.5H20v-.5Zm2.5,0H22v.5h.5v-.5Zm2.5,0h-.5v.5H25v-.5Zm2.5,0H27v.5h.5v-.5Zm2.5,0h-.5v.5H30v-.5Zm2.5,0H32v.5h.5v-.5Zm2.5,0h-.5v.5H35v-.5Zm2.5,0H37v.5h.5v-.5Zm2.5,0h-.5v.5H40v-.5Zm2.5,0H42v.5h.5v-.5Zm2.5,0h-.5v.5H45v-.5Zm2.5,0H47v.5h.5v-.5Zm2.5,0h-.5v.5H50v-.5Zm2.5,0H52v.5h.5v-.5Zm2.5,0h-.5v.5H55v-.5Zm2.5,0H57v.5h.5v-.5Zm2.5,0h-.5v.5H60v-.5Zm2.5,0H62v.5h.5v-.5Zm2.5,0h-.5v.5H65v-.5Zm2.5,0H67v.5h.5v-.5Zm2.5,0h-.5v.5H70v-.5Zm2.5,0H72v.5h.5v-.5Zm2.5,0h-.5v.5H75v-.5Zm2.5,0H77v.5h.5v-.5Zm2.5,0h-.5v.5H80v-.5Zm2.5,0H82v.5h.5v-.5Zm2.5,0h-.5v.5H85v-.5Zm2.5,0H87v.5h.5v-.5Zm2.5,0h-.5v.5H90v-.5Zm2.5,0H92v.5h.5v-.5Zm2.5,0h-.5v.5H95v-.5Zm2.5,0H97v.5h.5v-.5Zm2.5,0h-.5v.5h.5v-.5Zm2.5,0H102v.5h.5v-.5Zm2.5,0h-.5v.5h.5v-.5Zm2.5,0H107v.5h.5v-.5Zm2.5,0h-.5v.5h.5v-.5Zm2.5,0H112v.5h.5v-.5Zm2.5,0h-.5v.5h.5v-.5Zm2.5,0H117v.5h.5v-.5Zm2.5,0h-.5v.5h.5v-.5Zm2.5,0H122v.5h.5v-.5Zm2.5,0h-.5v.5h.5v-.5Zm2.5,0H127v.5h.5v-.5ZM129,127h-.5v.5h.5V127Zm0-2.5h-.5v.5h.5v-.5Zm0-2.5h-.5v.5h.5V122Zm0-2.5h-.5v.5h.5v-.5Zm0-2.5h-.5v.5h.5V117Zm0-2.5h-.5v.5h.5v-.5Zm0-2.5h-.5v.5h.5V112Zm0-2.5h-.5v.5h.5v-.5Zm0-2.5h-.5v.5h.5V107Zm0-2.5h-.5v.5h.5v-.5Zm0-2.5h-.5v.5h.5V102Zm0-2.5h-.5v.5h.5v-.5Zm0-2.5h-.5v.5h.5V97Zm0-2.5h-.5V95h.5v-.5Zm0-2.5h-.5v.5h.5V92Zm0-2.5h-.5V90h.5v-.5Zm0-2.5h-.5v.5h.5V87Zm0-2.5h-.5V85h.5v-.5Zm0-2.5h-.5v.5h.5V82Zm0-2.5h-.5V80h.5v-.5Zm0-2.5h-.5v.5h.5V77Zm0-2.5h-.5V75h.5v-.5Zm0-2.5h-.5v.5h.5V72Zm0-2.5h-.5V70h.5v-.5Zm0-2.5h-.5v.5h.5V67Zm0-2.5h-.5V65h.5v-.5Zm0-2.5h-.5v.5h.5V62Zm0-2.5h-.5V60h.5v-.5Zm0-2.5h-.5v.5h.5V57Zm0-2.5h-.5V55h.5v-.5Zm0-2.5h-.5v.5h.5V52Zm0-2.5h-.5V50h.5v-.5Zm0-2.5h-.5v.5h.5V47Zm0-2.5h-.5V45h.5v-.5Zm0-2.5h-.5v.5h.5V42Zm0-2.5h-.5V40h.5v-.5Zm0-2.5h-.5v.5h.5V37Zm0-2.5h-.5V35h.5v-.5Zm0-2.5h-.5v.5h.5V32Zm0-2.5h-.5V30h.5v-.5Zm0-2.5h-.5v.5h.5V27Zm0-2.5h-.5V25h.5v-.5Zm0-2.5h-.5v.5h.5V22Zm0-2.5h-.5V20h.5v-.5Zm0-2.5h-.5v.5h.5V17Zm0-2.5h-.5V15h.5v-.5Zm0-2.5h-.5v.5h.5V12Zm0-2.5h-.5V10h.5V9.5ZM129,7h-.5v.5h.5V7Zm0-2.5h-.5V5h.5V4.5ZM129,2h-.5v.5h.5V2Z"/><path d="M90.1,115.7H80a4.28,4.28,0,0,1-2.78-.86,5.57,5.57,0,0,1-1.62-2.15L68.94,95H34.41l-6.69,17.71a5.2,5.2,0,0,1-1.55,2.06,4.19,4.19,0,0,1-2.79,1H13.3L45.1,35.5H58.3ZM65.43,85.63l-11-29.3a81.32,81.32,0,0,1-2.73-8.63c-.41,1.74-.85,3.35-1.33,4.81s-.93,2.76-1.34,3.88L38,85.63Z"/><path d="M97,17.9a.53.53,0,0,0-1,0C93.79,35.67,82.5,39.33,82.5,51.68a14,14,0,0,0,28,0C110.5,39.33,99.22,35.67,97,17.9ZM94.88,37.55c-.15.54-.31,1.11-.48,1.69A44.06,44.06,0,0,0,92.26,51.5c0,2.53-1.49,3.43-2.89,3.43A2.91,2.91,0,0,1,86.48,52c0-5.52,2.66-9.12,5-12.3.74-1,1.43-1.94,2-2.88a.78.78,0,0,1,1.26,0A.81.81,0,0,1,94.88,37.55Z"/></g></g></svg>